<svg width="64" height="64" viewBox="0 0 64 64" fill="none" xmlns="http://www.w3.org/2000/svg">
  <defs>
    <linearGradient id="grad" x1="10" y1="5" x2="54" y2="59" gradientUnits="userSpaceOnUse">
      <stop offset="0%" stop-color="#C084FC"/>
      <stop offset="50%" stop-color="#A855F7"/>
      <stop offset="100%" stop-color="#7C3AED"/>
    </linearGradient>
  </defs>
  
  <!-- Simplified hexagonal P for favicon -->
  <path d="M 16 8 L 28 4 L 48 4 L 58 16 L 48 28 L 48 38 L 58 50 L 48 60 L 28 60 L 16 54 L 16 46 L 24 40 L 24 30 L 16 24 Z M 24 12 L 24 24 L 42 24 L 48 18 L 42 12 Z" fill="url(#grad)"/>
  
  <!-- Inner cutout -->
  <path d="M 24 12 L 42 12 L 48 18 L 42 24 L 24 24 Z" fill="white"/>
  
  <!-- Bottom circle -->
  <circle cx="24" cy="50" r="6" fill="url(#grad)"/>
  <circle cx="24" cy="50" r="4" fill="white"/>
</svg>
