<svg width="180" height="180" viewBox="0 0 180 180" fill="none" xmlns="http://www.w3.org/2000/svg">
  <defs>
    <linearGradient id="gradient" x1="40" y1="20" x2="140" y2="160" gradientUnits="userSpaceOnUse">
      <stop offset="0%" stop-color="#C084FC"/>
      <stop offset="50%" stop-color="#A855F7"/>
      <stop offset="100%" stop-color="#7C3AED"/>
    </linearGradient>
  </defs>
  
  <!-- Hexagonal P shape -->
  <path d="M 50 30 L 80 15 L 140 15 L 160 45 L 140 75 L 140 105 L 160 135 L 140 165 L 80 165 L 50 150 L 50 130 L 70 115 L 70 85 L 50 70 Z M 70 35 L 70 65 L 120 65 L 135 50 L 120 35 Z" fill="url(#gradient)" stroke="none"/>
  
  <!-- Inner cutout for P -->
  <path d="M 70 35 L 120 35 L 135 50 L 120 65 L 70 65 Z" fill="white"/>
  
  <!-- Bottom circle detail -->
  <circle cx="70" cy="140" r="18" fill="url(#gradient)"/>
  <circle cx="70" cy="140" r="12" fill="white"/>
</svg>
